<?xml version="1.0" encoding="iso-8859-1"?>
<!-- Generator: Adobe Illustrator 19.0.0, SVG Export Plug-In . SVG Version: 6.00 Build 0)  -->
<svg version="1.1" id="Layer_1" xmlns="http://www.w3.org/2000/svg" xmlns:xlink="http://www.w3.org/1999/xlink" x="0px" y="0px"
	 viewBox="0 0 242.133 242.133" style="enable-background:new 0 0 242.133 242.133;" xml:space="preserve">
<path fill="#aaa" id="XMLID_30_" d="M200.616,62.73l15.91,15.91c2.869,2.87,6.706,4.394,10.609,4.394c1.933,0,3.882-0.373,5.737-1.142
	c5.605-2.322,9.26-7.792,9.26-13.858V15c0-8.284-6.716-15-15-15H174.1c-6.067,0-11.536,3.655-13.858,9.26
	c-2.321,5.605-1.038,12.057,3.252,16.347l15.91,15.91l-58.337,58.337L62.729,41.517l15.91-15.91
	c4.29-4.29,5.573-10.742,3.252-16.347C79.569,3.655,74.101,0,68.033,0H15C6.716,0,0,6.716,0,15v53.033
	C0,74.1,3.654,79.57,9.26,81.892c1.855,0.769,3.805,1.142,5.737,1.142c3.903,0,7.74-1.524,10.609-4.394l15.91-15.91l58.337,58.337
	l-58.337,58.336l-15.91-15.91c-4.289-4.291-10.743-5.571-16.347-3.252C3.654,162.563,0,168.032,0,174.099v53.033
	c0,8.284,6.716,15,15,15h53.033c0.007-0.001,0.013-0.001,0.019,0c8.285,0,15-6.716,15-15c0-4.377-1.875-8.316-4.865-11.059
	l-15.458-15.458l58.337-58.336l58.336,58.337l-15.909,15.91c-4.29,4.29-5.573,10.742-3.252,16.347
	c2.322,5.605,7.791,9.26,13.858,9.26h53.033c8.284,0,15-6.716,15-15v-53.033c0-6.067-3.654-11.537-9.26-13.858
	c-5.603-2.319-12.057-1.039-16.347,3.252l-15.911,15.911l-58.336-58.337L200.616,62.73z"/>
<g>
</g>
<g>
</g>
<g>
</g>
<g>
</g>
<g>
</g>
<g>
</g>
<g>
</g>
<g>
</g>
<g>
</g>
<g>
</g>
<g>
</g>
<g>
</g>
<g>
</g>
<g>
</g>
<g>
</g>
</svg>
